<svg class="rich-terminal" viewBox="0 0 1116 440.4" xmlns="http://www.w3.org/2000/svg">
    <!-- Generated with Rich https://www.textualize.io -->
    <style>

    @font-face {
        font-family: "Fira Code";
        src: local("FiraCode-Regular"),
                url("https://cdnjs.cloudflare.com/ajax/libs/firacode/6.2.0/woff2/FiraCode-Regular.woff2") format("woff2"),
                url("https://cdnjs.cloudflare.com/ajax/libs/firacode/6.2.0/woff/FiraCode-Regular.woff") format("woff");
        font-style: normal;
        font-weight: 400;
    }
    @font-face {
        font-family: "Fira Code";
        src: local("FiraCode-Bold"),
                url("https://cdnjs.cloudflare.com/ajax/libs/firacode/6.2.0/woff2/FiraCode-Bold.woff2") format("woff2"),
                url("https://cdnjs.cloudflare.com/ajax/libs/firacode/6.2.0/woff/FiraCode-Bold.woff") format("woff");
        font-style: bold;
        font-weight: 700;
    }

    .terminal-2686635824-matrix {
        font-family: Fira Code, monospace;
        font-size: 20px;
        line-height: 24.4px;
        font-variant-east-asian: full-width;
    }

    .terminal-2686635824-title {
        font-size: 18px;
        font-weight: bold;
        font-family: arial;
    }

    .terminal-2686635824-r1 { fill: #c5c8c6 }
.terminal-2686635824-r2 { fill: #e0523f }
.terminal-2686635824-r3 { fill: #5fe3d6 }
.terminal-2686635824-r4 { fill: #6fd66f }
.terminal-2686635824-r5 { fill: #3c1f1c }
.terminal-2686635824-r6 { fill: #e8a33d }
.terminal-2686635824-r7 { fill: #c9d94a }
    </style>

    <defs>
    <clipPath id="terminal-2686635824-clip-terminal">
      <rect x="0" y="0" width="1097.0" height="389.4" />
    </clipPath>
    <clipPath id="terminal-2686635824-line-0">
    <rect x="0" y="1.5" width="1098" height="24.65"/>
            </clipPath>
<clipPath id="terminal-2686635824-line-1">
    <rect x="0" y="25.9" width="1098" height="24.65"/>
            </clipPath>
<clipPath id="terminal-2686635824-line-2">
    <rect x="0" y="50.3" width="1098" height="24.65"/>
            </clipPath>
<clipPath id="terminal-2686635824-line-3">
    <rect x="0" y="74.7" width="1098" height="24.65"/>
            </clipPath>
<clipPath id="terminal-2686635824-line-4">
    <rect x="0" y="99.1" width="1098" height="24.65"/>
            </clipPath>
<clipPath id="terminal-2686635824-line-5">
    <rect x="0" y="123.5" width="1098" height="24.65"/>
            </clipPath>
<clipPath id="terminal-2686635824-line-6">
    <rect x="0" y="147.9" width="1098" height="24.65"/>
            </clipPath>
<clipPath id="terminal-2686635824-line-7">
    <rect x="0" y="172.3" width="1098" height="24.65"/>
            </clipPath>
<clipPath id="terminal-2686635824-line-8">
    <rect x="0" y="196.7" width="1098" height="24.65"/>
            </clipPath>
<clipPath id="terminal-2686635824-line-9">
    <rect x="0" y="221.1" width="1098" height="24.65"/>
            </clipPath>
<clipPath id="terminal-2686635824-line-10">
    <rect x="0" y="245.5" width="1098" height="24.65"/>
            </clipPath>
<clipPath id="terminal-2686635824-line-11">
    <rect x="0" y="269.9" width="1098" height="24.65"/>
            </clipPath>
<clipPath id="terminal-2686635824-line-12">
    <rect x="0" y="294.3" width="1098" height="24.65"/>
            </clipPath>
<clipPath id="terminal-2686635824-line-13">
    <rect x="0" y="318.7" width="1098" height="24.65"/>
            </clipPath>
<clipPath id="terminal-2686635824-line-14">
    <rect x="0" y="343.1" width="1098" height="24.65"/>
            </clipPath>
    </defs>

    <rect fill="#292929" stroke="rgba(255,255,255,0.35)" stroke-width="1" x="1" y="1" width="1114" height="438.4" rx="8"/><text class="terminal-2686635824-title" fill="#c5c8c6" text-anchor="middle" x="557" y="27">tend</text>
            <g transform="translate(26,22)">
            <circle cx="0" cy="0" r="7" fill="#ff5f57"/>
            <circle cx="22" cy="0" r="7" fill="#febc2e"/>
            <circle cx="44" cy="0" r="7" fill="#28c840"/>
            </g>
        
    <g transform="translate(9, 41)" clip-path="url(#terminal-2686635824-clip-terminal)">
    <rect fill="#12587a" x="0" y="50.3" width="48.8" height="24.65" shape-rendering="crispEdges"/><rect fill="#12587a" x="48.8" y="50.3" width="12.2" height="24.65" shape-rendering="crispEdges"/><rect fill="#12587a" x="61" y="50.3" width="48.8" height="24.65" shape-rendering="crispEdges"/><rect fill="#12587a" x="109.8" y="50.3" width="12.2" height="24.65" shape-rendering="crispEdges"/><rect fill="#12587a" x="122" y="50.3" width="48.8" height="24.65" shape-rendering="crispEdges"/><rect fill="#12587a" x="170.8" y="50.3" width="12.2" height="24.65" shape-rendering="crispEdges"/><rect fill="#12587a" x="183" y="50.3" width="48.8" height="24.65" shape-rendering="crispEdges"/><rect fill="#12587a" x="231.8" y="50.3" width="12.2" height="24.65" shape-rendering="crispEdges"/><rect fill="#12587a" x="244" y="50.3" width="48.8" height="24.65" shape-rendering="crispEdges"/><rect fill="#12587a" x="292.8" y="50.3" width="12.2" height="24.65" shape-rendering="crispEdges"/><rect fill="#12587a" x="305" y="50.3" width="48.8" height="24.65" shape-rendering="crispEdges"/><rect fill="#12587a" x="353.8" y="50.3" width="12.2" height="24.65" shape-rendering="crispEdges"/><rect fill="#12587a" x="366" y="50.3" width="48.8" height="24.65" shape-rendering="crispEdges"/><rect fill="#12587a" x="0" y="74.7" width="48.8" height="24.65" shape-rendering="crispEdges"/><rect fill="#12587a" x="48.8" y="74.7" width="12.2" height="24.65" shape-rendering="crispEdges"/><rect fill="#12587a" x="61" y="74.7" width="48.8" height="24.65" shape-rendering="crispEdges"/><rect fill="#12587a" x="109.8" y="74.7" width="12.2" height="24.65" shape-rendering="crispEdges"/><rect fill="#12587a" x="122" y="74.7" width="48.8" height="24.65" shape-rendering="crispEdges"/><rect fill="#12587a" x="170.8" y="74.7" width="12.2" height="24.65" shape-rendering="crispEdges"/><rect fill="#12587a" x="183" y="74.7" width="48.8" height="24.65" shape-rendering="crispEdges"/><rect fill="#12587a" x="231.8" y="74.7" width="12.2" height="24.65" shape-rendering="crispEdges"/><rect fill="#12587a" x="244" y="74.7" width="48.8" height="24.65" shape-rendering="crispEdges"/><rect fill="#12587a" x="292.8" y="74.7" width="12.2" height="24.65" shape-rendering="crispEdges"/><rect fill="#12587a" x="305" y="74.7" width="48.8" height="24.65" shape-rendering="crispEdges"/><rect fill="#12587a" x="353.8" y="74.7" width="12.2" height="24.65" shape-rendering="crispEdges"/><rect fill="#12587a" x="366" y="74.7" width="48.8" height="24.65" shape-rendering="crispEdges"/><rect fill="#12587a" x="0" y="99.1" width="48.8" height="24.65" shape-rendering="crispEdges"/><rect fill="#12587a" x="48.8" y="99.1" width="12.2" height="24.65" shape-rendering="crispEdges"/><rect fill="#12587a" x="61" y="99.1" width="48.8" height="24.65" shape-rendering="crispEdges"/><rect fill="#12587a" x="109.8" y="99.1" width="12.2" height="24.65" shape-rendering="crispEdges"/><rect fill="#12587a" x="122" y="99.1" width="48.8" height="24.65" shape-rendering="crispEdges"/><rect fill="#12587a" x="170.8" y="99.1" width="12.2" height="24.65" shape-rendering="crispEdges"/><rect fill="#12587a" x="183" y="99.1" width="48.8" height="24.65" shape-rendering="crispEdges"/><rect fill="#12587a" x="231.8" y="99.1" width="12.2" height="24.65" shape-rendering="crispEdges"/><rect fill="#12587a" x="244" y="99.1" width="48.8" height="24.65" shape-rendering="crispEdges"/><rect fill="#12587a" x="292.8" y="99.1" width="12.2" height="24.65" shape-rendering="crispEdges"/><rect fill="#12587a" x="305" y="99.1" width="48.8" height="24.65" shape-rendering="crispEdges"/><rect fill="#12587a" x="353.8" y="99.1" width="12.2" height="24.65" shape-rendering="crispEdges"/><rect fill="#12587a" x="366" y="99.1" width="48.8" height="24.65" shape-rendering="crispEdges"/><rect fill="#0a2f47" x="0" y="123.5" width="48.8" height="24.65" shape-rendering="crispEdges"/><rect fill="#0a2f47" x="48.8" y="123.5" width="12.2" height="24.65" shape-rendering="crispEdges"/><rect fill="#0a2f47" x="61" y="123.5" width="48.8" height="24.65" shape-rendering="crispEdges"/><rect fill="#0a2f47" x="109.8" y="123.5" width="12.2" height="24.65" shape-rendering="crispEdges"/><rect fill="#0a2f47" x="122" y="123.5" width="48.8" height="24.65" shape-rendering="crispEdges"/><rect fill="#0a2f47" x="170.8" y="123.5" width="12.2" height="24.65" shape-rendering="crispEdges"/><rect fill="#0a2f47" x="183" y="123.5" width="48.8" height="24.65" shape-rendering="crispEdges"/><rect fill="#0a2f47" x="231.8" y="123.5" width="12.2" height="24.65" shape-rendering="crispEdges"/><rect fill="#0a2f47" x="244" y="123.5" width="48.8" height="24.65" shape-rendering="crispEdges"/><rect fill="#0a2f47" x="292.8" y="123.5" width="12.2" height="24.65" shape-rendering="crispEdges"/><rect fill="#0a2f47" x="305" y="123.5" width="48.8" height="24.65" shape-rendering="crispEdges"/><rect fill="#0a2f47" x="353.8" y="123.5" width="12.2" height="24.65" shape-rendering="crispEdges"/><rect fill="#0a2f47" x="366" y="123.5" width="48.8" height="24.65" shape-rendering="crispEdges"/><rect fill="#0a2f47" x="0" y="147.9" width="48.8" height="24.65" shape-rendering="crispEdges"/><rect fill="#0a2f47" x="48.8" y="147.9" width="12.2" height="24.65" shape-rendering="crispEdges"/><rect fill="#0a2f47" x="61" y="147.9" width="48.8" height="24.65" shape-rendering="crispEdges"/><rect fill="#0a2f47" x="109.8" y="147.9" width="12.2" height="24.65" shape-rendering="crispEdges"/><rect fill="#0a2f47" x="122" y="147.9" width="48.8" height="24.65" shape-rendering="crispEdges"/><rect fill="#0a2f47" x="170.8" y="147.9" width="12.2" height="24.65" shape-rendering="crispEdges"/><rect fill="#0a2f47" x="183" y="147.9" width="48.8" height="24.65" shape-rendering="crispEdges"/><rect fill="#0a2f47" x="231.8" y="147.9" width="12.2" height="24.65" shape-rendering="crispEdges"/><rect fill="#0a2f47" x="244" y="147.9" width="48.8" height="24.65" shape-rendering="crispEdges"/><rect fill="#0a2f47" x="292.8" y="147.9" width="12.2" height="24.65" shape-rendering="crispEdges"/><rect fill="#0a2f47" x="305" y="147.9" width="48.8" height="24.65" shape-rendering="crispEdges"/><rect fill="#0a2f47" x="353.8" y="147.9" width="12.2" height="24.65" shape-rendering="crispEdges"/><rect fill="#0a2f47" x="366" y="147.9" width="48.8" height="24.65" shape-rendering="crispEdges"/><rect fill="#0a2f47" x="0" y="172.3" width="48.8" height="24.65" shape-rendering="crispEdges"/><rect fill="#0a2f47" x="48.8" y="172.3" width="12.2" height="24.65" shape-rendering="crispEdges"/><rect fill="#0a2f47" x="61" y="172.3" width="48.8" height="24.65" shape-rendering="crispEdges"/><rect fill="#0a2f47" x="109.8" y="172.3" width="12.2" height="24.65" shape-rendering="crispEdges"/><rect fill="#0a2f47" x="122" y="172.3" width="48.8" height="24.65" shape-rendering="crispEdges"/><rect fill="#0a2f47" x="170.8" y="172.3" width="12.2" height="24.65" shape-rendering="crispEdges"/><rect fill="#0a2f47" x="183" y="172.3" width="48.8" height="24.65" shape-rendering="crispEdges"/><rect fill="#0a2f47" x="231.8" y="172.3" width="12.2" height="24.65" shape-rendering="crispEdges"/><rect fill="#0a2f47" x="244" y="172.3" width="48.8" height="24.65" shape-rendering="crispEdges"/><rect fill="#0a2f47" x="292.8" y="172.3" width="12.2" height="24.65" shape-rendering="crispEdges"/><rect fill="#0a2f47" x="305" y="172.3" width="48.8" height="24.65" shape-rendering="crispEdges"/><rect fill="#0a2f47" x="353.8" y="172.3" width="12.2" height="24.65" shape-rendering="crispEdges"/><rect fill="#0a2f47" x="366" y="172.3" width="48.8" height="24.65" shape-rendering="crispEdges"/><rect fill="#04141f" x="0" y="196.7" width="48.8" height="24.65" shape-rendering="crispEdges"/><rect fill="#04141f" x="48.8" y="196.7" width="12.2" height="24.65" shape-rendering="crispEdges"/><rect fill="#04141f" x="61" y="196.7" width="48.8" height="24.65" shape-rendering="crispEdges"/><rect fill="#04141f" x="109.8" y="196.7" width="12.2" height="24.65" shape-rendering="crispEdges"/><rect fill="#04141f" x="122" y="196.7" width="48.8" height="24.65" shape-rendering="crispEdges"/><rect fill="#04141f" x="170.8" y="196.7" width="12.2" height="24.65" shape-rendering="crispEdges"/><rect fill="#04141f" x="183" y="196.7" width="48.8" height="24.65" shape-rendering="crispEdges"/><rect fill="#04141f" x="231.8" y="196.7" width="12.2" height="24.65" shape-rendering="crispEdges"/><rect fill="#04141f" x="244" y="196.7" width="48.8" height="24.65" shape-rendering="crispEdges"/><rect fill="#04141f" x="292.8" y="196.7" width="12.2" height="24.65" shape-rendering="crispEdges"/><rect fill="#04141f" x="305" y="196.7" width="48.8" height="24.65" shape-rendering="crispEdges"/><rect fill="#04141f" x="353.8" y="196.7" width="12.2" height="24.65" shape-rendering="crispEdges"/><rect fill="#04141f" x="366" y="196.7" width="48.8" height="24.65" shape-rendering="crispEdges"/><rect fill="#04141f" x="0" y="221.1" width="48.8" height="24.65" shape-rendering="crispEdges"/><rect fill="#04141f" x="48.8" y="221.1" width="12.2" height="24.65" shape-rendering="crispEdges"/><rect fill="#04141f" x="61" y="221.1" width="48.8" height="24.65" shape-rendering="crispEdges"/><rect fill="#04141f" x="109.8" y="221.1" width="12.2" height="24.65" shape-rendering="crispEdges"/><rect fill="#04141f" x="122" y="221.1" width="48.8" height="24.65" shape-rendering="crispEdges"/><rect fill="#04141f" x="170.8" y="221.1" width="12.2" height="24.65" shape-rendering="crispEdges"/><rect fill="#04141f" x="183" y="221.1" width="48.8" height="24.65" shape-rendering="crispEdges"/><rect fill="#04141f" x="231.8" y="221.1" width="12.2" height="24.65" shape-rendering="crispEdges"/><rect fill="#04141f" x="244" y="221.1" width="48.8" height="24.65" shape-rendering="crispEdges"/><rect fill="#04141f" x="292.8" y="221.1" width="12.2" height="24.65" shape-rendering="crispEdges"/><rect fill="#04141f" x="305" y="221.1" width="48.8" height="24.65" shape-rendering="crispEdges"/><rect fill="#04141f" x="353.8" y="221.1" width="12.2" height="24.65" shape-rendering="crispEdges"/><rect fill="#04141f" x="366" y="221.1" width="48.8" height="24.65" shape-rendering="crispEdges"/>
    <g class="terminal-2686635824-matrix">
    <text class="terminal-2686635824-r1" x="0" y="20" textLength="305" clip-path="url(#terminal-2686635824-line-0)">&#160;day&#160;22&#160;&#160;&#160;&#160;&#160;&#160;&#160;&#160;&#160;&#160;&#160;tokens&#160;</text><text class="terminal-2686635824-r2" x="305" y="20" textLength="122" clip-path="url(#terminal-2686635824-line-0)">61,204,311</text><text class="terminal-2686635824-r1" x="427" y="20" textLength="109.8" clip-path="url(#terminal-2686635824-line-0)">&#160;·&#160;seeds&#160;</text><text class="terminal-2686635824-r3" x="536.8" y="20" textLength="24.4" clip-path="url(#terminal-2686635824-line-0)">40</text><text class="terminal-2686635824-r1" x="1098" y="20" textLength="12.2" clip-path="url(#terminal-2686635824-line-0)">
</text><text class="terminal-2686635824-r1" x="1098" y="44.4" textLength="12.2" clip-path="url(#terminal-2686635824-line-1)">
</text><text class="terminal-2686635824-r1" x="1098" y="68.8" textLength="12.2" clip-path="url(#terminal-2686635824-line-2)">
</text><text class="terminal-2686635824-r4" x="366" y="93.2" textLength="48.8" clip-path="url(#terminal-2686635824-line-3)">&#160;|&#160;&#160;</text><text class="terminal-2686635824-r1" x="1098" y="93.2" textLength="12.2" clip-path="url(#terminal-2686635824-line-3)">
</text><text class="terminal-2686635824-r4" x="244" y="117.6" textLength="48.8" clip-path="url(#terminal-2686635824-line-4)">&#160;|&#160;&#160;</text><text class="terminal-2686635824-r4" x="366" y="117.6" textLength="48.8" clip-path="url(#terminal-2686635824-line-4)">&#160;|&#160;&#160;</text><text class="terminal-2686635824-r1" x="1098" y="117.6" textLength="12.2" clip-path="url(#terminal-2686635824-line-4)">
</text><text class="terminal-2686635824-r4" x="0" y="142" textLength="48.8" clip-path="url(#terminal-2686635824-line-5)">&#160;|&#160;&#160;</text><text class="terminal-2686635824-r4" x="244" y="142" textLength="48.8" clip-path="url(#terminal-2686635824-line-5)">&#160;|&#160;&#160;</text><text class="terminal-2686635824-r4" x="366" y="142" textLength="48.8" clip-path="url(#terminal-2686635824-line-5)">&#160;|&#160;&#160;</text><text class="terminal-2686635824-r1" x="1098" y="142" textLength="12.2" clip-path="url(#terminal-2686635824-line-5)">
</text><text class="terminal-2686635824-r4" x="0" y="166.4" textLength="48.8" clip-path="url(#terminal-2686635824-line-6)">&#160;|&#160;&#160;</text><text class="terminal-2686635824-r4" x="183" y="166.4" textLength="48.8" clip-path="url(#terminal-2686635824-line-6)">&#160;|&#160;&#160;</text><text class="terminal-2686635824-r4" x="244" y="166.4" textLength="48.8" clip-path="url(#terminal-2686635824-line-6)">&#160;|&#160;&#160;</text><text class="terminal-2686635824-r4" x="366" y="166.4" textLength="48.8" clip-path="url(#terminal-2686635824-line-6)">&#160;|&#160;&#160;</text><text class="terminal-2686635824-r1" x="1098" y="166.4" textLength="12.2" clip-path="url(#terminal-2686635824-line-6)">
</text><text class="terminal-2686635824-r4" x="0" y="190.8" textLength="48.8" clip-path="url(#terminal-2686635824-line-7)">&#160;|&#160;&#160;</text><text class="terminal-2686635824-r4" x="122" y="190.8" textLength="48.8" clip-path="url(#terminal-2686635824-line-7)">&#160;|&#160;&#160;</text><text class="terminal-2686635824-r4" x="183" y="190.8" textLength="48.8" clip-path="url(#terminal-2686635824-line-7)">&#160;|&#160;&#160;</text><text class="terminal-2686635824-r4" x="244" y="190.8" textLength="48.8" clip-path="url(#terminal-2686635824-line-7)">&#160;|&#160;&#160;</text><text class="terminal-2686635824-r4" x="366" y="190.8" textLength="48.8" clip-path="url(#terminal-2686635824-line-7)">&#160;|&#160;&#160;</text><text class="terminal-2686635824-r1" x="1098" y="190.8" textLength="12.2" clip-path="url(#terminal-2686635824-line-7)">
</text><text class="terminal-2686635824-r4" x="0" y="215.2" textLength="48.8" clip-path="url(#terminal-2686635824-line-8)">&#160;|&#160;&#160;</text><text class="terminal-2686635824-r4" x="122" y="215.2" textLength="48.8" clip-path="url(#terminal-2686635824-line-8)">&#160;|&#160;&#160;</text><text class="terminal-2686635824-r4" x="183" y="215.2" textLength="48.8" clip-path="url(#terminal-2686635824-line-8)">&#160;|&#160;&#160;</text><text class="terminal-2686635824-r4" x="244" y="215.2" textLength="48.8" clip-path="url(#terminal-2686635824-line-8)">&#160;|&#160;&#160;</text><text class="terminal-2686635824-r4" x="305" y="215.2" textLength="48.8" clip-path="url(#terminal-2686635824-line-8)">&#160;|&#160;&#160;</text><text class="terminal-2686635824-r4" x="366" y="215.2" textLength="48.8" clip-path="url(#terminal-2686635824-line-8)">&#160;|&#160;&#160;</text><text class="terminal-2686635824-r1" x="1098" y="215.2" textLength="12.2" clip-path="url(#terminal-2686635824-line-8)">
</text><text class="terminal-2686635824-r4" x="0" y="239.6" textLength="48.8" clip-path="url(#terminal-2686635824-line-9)">&#160;|&#160;&#160;</text><text class="terminal-2686635824-r4" x="122" y="239.6" textLength="48.8" clip-path="url(#terminal-2686635824-line-9)">&#160;|&#160;&#160;</text><text class="terminal-2686635824-r4" x="183" y="239.6" textLength="48.8" clip-path="url(#terminal-2686635824-line-9)">&#160;|&#160;&#160;</text><text class="terminal-2686635824-r4" x="244" y="239.6" textLength="48.8" clip-path="url(#terminal-2686635824-line-9)">&#160;|&#160;&#160;</text><text class="terminal-2686635824-r4" x="305" y="239.6" textLength="48.8" clip-path="url(#terminal-2686635824-line-9)">&#160;|&#160;&#160;</text><text class="terminal-2686635824-r4" x="366" y="239.6" textLength="48.8" clip-path="url(#terminal-2686635824-line-9)">&#160;|&#160;&#160;</text><text class="terminal-2686635824-r1" x="1098" y="239.6" textLength="12.2" clip-path="url(#terminal-2686635824-line-9)">
</text><text class="terminal-2686635824-r4" x="0" y="264" textLength="48.8" clip-path="url(#terminal-2686635824-line-10)">▓▓▓▓</text><text class="terminal-2686635824-r5" x="61" y="264" textLength="48.8" clip-path="url(#terminal-2686635824-line-10)">××××</text><text class="terminal-2686635824-r2" x="122" y="264" textLength="48.8" clip-path="url(#terminal-2686635824-line-10)">░░░░</text><text class="terminal-2686635824-r6" x="183" y="264" textLength="48.8" clip-path="url(#terminal-2686635824-line-10)">▒▒▒▒</text><text class="terminal-2686635824-r4" x="244" y="264" textLength="48.8" clip-path="url(#terminal-2686635824-line-10)">▓▓▓▓</text><text class="terminal-2686635824-r4" x="305" y="264" textLength="48.8" clip-path="url(#terminal-2686635824-line-10)">▓▓▓▓</text><text class="terminal-2686635824-r4" x="366" y="264" textLength="48.8" clip-path="url(#terminal-2686635824-line-10)">▓▓▓▓</text><text class="terminal-2686635824-r1" x="1098" y="264" textLength="12.2" clip-path="url(#terminal-2686635824-line-10)">
</text><text class="terminal-2686635824-r1" x="0" y="288.4" textLength="414.8" clip-path="url(#terminal-2686635824-line-11)">&#160;1&#160;&#160;&#160;&#160;2&#160;&#160;&#160;&#160;3&#160;&#160;&#160;&#160;4&#160;&#160;&#160;&#160;5&#160;&#160;&#160;&#160;6&#160;&#160;&#160;&#160;7&#160;&#160;</text><text class="terminal-2686635824-r1" x="1098" y="288.4" textLength="12.2" clip-path="url(#terminal-2686635824-line-11)">
</text><text class="terminal-2686635824-r7" x="122" y="312.8" textLength="48.8" clip-path="url(#terminal-2686635824-line-12)">&#160;●●&#160;</text><text class="terminal-2686635824-r7" x="183" y="312.8" textLength="48.8" clip-path="url(#terminal-2686635824-line-12)">&#160;●&#160;&#160;</text><text class="terminal-2686635824-r1" x="1098" y="312.8" textLength="12.2" clip-path="url(#terminal-2686635824-line-12)">
</text><text class="terminal-2686635824-r1" x="1098" y="337.2" textLength="12.2" clip-path="url(#terminal-2686635824-line-13)">
</text><text class="terminal-2686635824-r1" x="0" y="361.6" textLength="451.4" clip-path="url(#terminal-2686635824-line-14)">&#160;3&#160;goes&#160;next&#160;tick&#160;unless&#160;you&#160;press&#160;3.</text><text class="terminal-2686635824-r1" x="1098" y="361.6" textLength="12.2" clip-path="url(#terminal-2686635824-line-14)">
</text><text class="terminal-2686635824-r1" x="1098" y="386" textLength="12.2" clip-path="url(#terminal-2686635824-line-15)">
</text>
    </g>
    </g>
</svg>
